<?xml version="1.0" encoding="UTF-8"?>
<svg xmlns="http://www.w3.org/2000/svg" xmlns:xlink="http://www.w3.org/1999/xlink" viewBox="0 0 96 96" width="96px" height="96px">
<defs>
<linearGradient id="linear0" gradientUnits="userSpaceOnUse" x1="85.997307" y1="29.457689" x2="85.997307" y2="142.4375" gradientTransform="matrix(0.55814,0,0,0.55814,0,0)">
<stop offset="0" style="stop-color:rgb(10.196079%,42.745098%,100%);stop-opacity:1;"/>
<stop offset="1" style="stop-color:rgb(78.431374%,13.333334%,100%);stop-opacity:1;"/>
</linearGradient>
<linearGradient id="linear1" gradientUnits="userSpaceOnUse" x1="86.119293" y1="50.593288" x2="86.119293" y2="115.04644" gradientTransform="matrix(0.55814,0,0,0.55814,0,0)">
<stop offset="0" style="stop-color:rgb(10.196079%,42.745098%,100%);stop-opacity:1;"/>
<stop offset="1" style="stop-color:rgb(78.431374%,13.333334%,100%);stop-opacity:1;"/>
</linearGradient>
</defs>
<g id="surface9241595">
<path style=" stroke:none;fill-rule:nonzero;fill:url(#linear0);" d="M 89.996094 65.9375 C 89.996094 66.199219 89.929688 66.453125 89.800781 66.679688 C 84.632812 75.757812 69.460938 79.390625 66.046875 79.5 C 66.03125 79.5 66.015625 79.5 66 79.5 C 65.546875 79.5 65.113281 79.292969 64.828125 78.9375 L 59.59375 72.394531 C 56.246094 73.058594 52.402344 73.5 48.035156 73.5 C 43.648438 73.5 39.777344 73.054688 36.414062 72.386719 L 31.171875 78.9375 C 30.886719 79.292969 30.453125 79.5 30 79.5 C 29.984375 79.5 29.96875 79.5 29.953125 79.5 C 26.535156 79.390625 11.335938 75.773438 6.195312 66.742188 C 6.066406 66.515625 6 66.257812 6 66 C 6 48.1875 13.683594 27.523438 17.527344 23.972656 C 24.828125 18.101562 36.804688 16.519531 37.308594 16.453125 C 37.972656 16.375 38.597656 16.726562 38.867188 17.328125 C 38.90625 17.410156 39.691406 19.195312 40.039062 21.539062 C 43.152344 21.113281 45.914062 21 47.972656 21 C 49.96875 21 52.628906 21.109375 55.617188 21.503906 C 55.96875 19.175781 56.746094 17.410156 56.785156 17.328125 C 57.054688 16.726562 57.679688 16.371094 58.335938 16.453125 C 58.859375 16.519531 71.171875 18.101562 78.394531 23.90625 C 82.316406 27.523438 90 48.15625 89.996094 65.9375 Z M 86.996094 65.53125 C 86.878906 48.601562 79.472656 28.984375 76.433594 26.179688 C 71.148438 21.933594 62.296875 20.136719 59.132812 19.609375 C 58.941406 20.21875 58.71875 21.046875 58.582031 21.972656 C 63.164062 22.828125 68.226562 24.394531 72.789062 27.226562 C 73.496094 27.664062 73.714844 28.585938 73.273438 29.289062 C 72.992188 29.746094 72.5 30 72 30 C 71.726562 30 71.457031 29.929688 71.210938 29.773438 C 63.109375 24.75 53.175781 24 47.972656 24 C 42.792969 24 32.890625 24.75 24.792969 29.773438 C 24.089844 30.214844 23.164062 29.996094 22.726562 29.289062 C 22.292969 28.585938 22.507812 27.660156 23.210938 27.226562 C 27.671875 24.460938 32.59375 22.898438 37.082031 22.03125 C 36.945312 21.085938 36.722656 20.234375 36.523438 19.613281 C 33.410156 20.152344 24.808594 21.96875 19.488281 26.242188 C 16.527344 28.984375 9.121094 48.628906 9.003906 65.59375 C 13.222656 72.460938 24.964844 75.960938 29.324219 76.445312 L 33.175781 71.632812 C 24.734375 69.382812 20.320312 65.878906 20.054688 65.664062 C 19.410156 65.140625 19.3125 64.195312 19.835938 63.554688 C 20.359375 62.910156 21.304688 62.8125 21.945312 63.335938 C 22.054688 63.421875 31.039062 70.5 48.035156 70.5 C 65.046875 70.5 73.964844 63.410156 74.050781 63.335938 C 74.695312 62.816406 75.636719 62.914062 76.160156 63.550781 C 76.683594 64.191406 76.589844 65.132812 75.953125 65.660156 C 75.6875 65.875 71.289062 69.394531 62.835938 71.644531 L 66.675781 76.445312 C 71.027344 75.960938 82.757812 72.4375 86.996094 65.53125 Z M 86.996094 65.53125 "/>
<path style=" stroke:none;fill-rule:nonzero;fill:url(#linear1);" d="M 60.808594 64.1875 L 35.285156 64.1875 C 32.867188 64.1875 30.695312 62.960938 29.484375 60.917969 C 28.265625 58.894531 28.230469 56.457031 29.390625 54.402344 L 42.148438 31.628906 C 43.339844 29.492188 45.542969 28.214844 48.042969 28.214844 C 50.546875 28.214844 52.753906 29.492188 53.945312 31.636719 L 66.703125 54.410156 C 67.847656 56.460938 67.804688 58.890625 66.613281 60.917969 C 65.398438 62.960938 63.230469 64.1875 60.808594 64.1875 Z M 48.042969 31.214844 C 46.648438 31.214844 45.425781 31.917969 44.769531 33.097656 L 32.003906 55.871094 C 31.382812 56.980469 31.402344 58.285156 32.058594 59.375 C 32.730469 60.511719 33.9375 61.1875 35.285156 61.1875 L 60.804688 61.1875 C 62.15625 61.1875 63.359375 60.511719 64.027344 59.386719 C 64.675781 58.292969 64.699219 56.976562 64.085938 55.871094 L 51.324219 33.097656 C 50.667969 31.917969 49.445312 31.214844 48.042969 31.214844 Z M 48.042969 31.214844 "/>
</g>
</svg>
